<svg xmlns="http://www.w3.org/2000/svg" width="15.313" height="14.523" viewBox="0 0 15.313 14.523">
  <g id="My_Courses_ico" data-name="My Courses ico" transform="translate(0.75 0.772)">
    <path id="Path_308" data-name="Path 308" d="M115.813,757.613v-10a1.186,1.186,0,0,0-.76-1.1,7.378,7.378,0,0,0-5.387,0l-.76.3-.76-.3a7.378,7.378,0,0,0-5.387,0,1.186,1.186,0,0,0-.76,1.1v10a.958.958,0,0,0,1.316.874,5.856,5.856,0,0,1,4.275,0L108.9,759h.019l1.306-.512a5.856,5.856,0,0,1,4.275,0A.958.958,0,0,0,115.813,757.613Z" transform="translate(-102 -746)" fill="none" stroke="#fff" stroke-width="1.5"/>
    <path id="Path_309" data-name="Path 309" d="M112,747.118v11.876m0,0s.007.008.014.006m-.014-.006s-.007.008-.014.006" transform="translate(-105.094 -746)" fill="none" stroke="#fff" stroke-width="1.5"/>
  </g>
</svg>
